<svg width="176" height="193" viewBox="0 0 176 193" fill="none" xmlns="http://www.w3.org/2000/svg">
<g style="mix-blend-mode:color-burn">
<g style="mix-blend-mode:color-burn">
<path d="M175.956 41.7594C174.824 41.1385 173.699 40.5176 172.589 39.8602C173.173 39.4293 173.845 39.0787 174.481 38.6988L175.942 37.8369V37.5009L174.298 38.3921C173.521 38.7765 172.774 39.2185 172.063 39.7142L171.829 39.8968L172.078 40.0648C172.808 40.5323 173.48 40.9632 174.203 41.3723L175.942 42.3949L175.956 41.7594Z" fill="#F4F4F5"/>
</g>
<g style="mix-blend-mode:color-burn">
<path d="M154.043 71.0866L171.384 80.9914L171.53 81.0791V81.2544C171.603 84.5852 171.625 87.916 171.676 91.2541L171.8 101.247V101.977L171.194 101.626C168.272 99.9756 165.482 98.2444 162.618 96.5133L158.338 93.964L156.198 92.6858L155.139 92.043C154.72 91.8302 154.362 91.5133 154.101 91.1226C153.883 90.7024 153.789 90.2285 153.831 89.7567V88.515V86.0241V81.0425L153.882 76.0609C153.955 74.4174 153.941 72.7374 154.043 71.0866ZM154.043 71.0866C154.043 74.4101 154.196 77.7263 154.269 81.0498L154.364 86.0315L154.408 88.5223V89.764C154.38 90.1251 154.453 90.4869 154.62 90.8085C154.834 91.1048 155.121 91.3412 155.453 91.4952L156.534 92.116L158.681 93.3724L162.976 95.8924C165.847 97.5578 168.703 99.289 171.581 100.903L170.982 101.254L170.931 91.2541C170.931 87.9233 170.88 84.5925 170.894 81.2617L171.048 81.5246L154.043 71.0866Z" fill="#F4F4F5"/>
</g>
<g style="mix-blend-mode:color-burn">
<path d="M154.006 69.1875L154.058 59.5456V52.3143C154.058 51.9052 154.058 51.5181 154.058 51.0944C154.056 50.867 154.107 50.6423 154.207 50.4381C154.307 50.2339 154.453 50.056 154.635 49.9184L162.881 44.8784L167.008 42.4095L169.075 41.1677L170.113 40.5541L170.631 40.2474C170.814 40.1451 171.011 40.0574 171.201 39.9625L171.661 39.7433L171.727 40.2181C171.727 40.3861 171.829 40.5834 171.866 40.8463C171.873 40.9167 171.873 40.9877 171.866 41.0581V41.5256V42.7674L171.822 45.2509L171.742 50.2179L171.632 55.1922L171.566 57.6757V58.9174V59.5529C171.556 59.7952 171.486 60.0312 171.362 60.2396C171.073 60.6069 170.696 60.8958 170.266 61.0796L169.185 61.6931L167.03 62.9203L162.706 65.3746L158.404 67.8654L156.256 69.1144C155.554 69.5563 154.821 69.9492 154.065 70.2904V70.2904L154.006 69.1875ZM154.006 69.1875L154.072 70.2831C154.829 69.9349 155.562 69.5347 156.263 69.0852L158.396 67.8142L162.662 65.265L166.913 62.6792L169.032 61.3863L170.098 60.7362C170.444 60.5797 170.749 60.3446 170.989 60.0496C171.123 59.6983 171.165 59.3189 171.113 58.9467V50.2398V45.2728V40.9486C171.113 40.8025 171.026 40.598 170.982 40.3642L171.537 40.6491C171.362 40.7294 171.194 40.8025 171.026 40.8901L170.5 41.1896L169.463 41.7959L167.344 43.0376L163.181 45.4554L154.817 50.2179C154.189 50.6123 154.386 51.5327 154.32 52.3143L154.262 54.7247L154.145 59.5456L154.006 69.1875Z" fill="#F4F4F5"/>
</g>
<g style="mix-blend-mode:color-burn">
<path d="M158.455 73.0369L156.388 71.8463L155.372 71.2473L154.642 70.7652C154.905 70.5899 155.161 70.4073 155.438 70.2539L156.534 69.6623L158.725 68.4717L163.108 66.0977L167.49 63.6873L169.682 62.4747L170.77 61.8758C171.056 61.6713 171.386 61.5385 171.734 61.4886C171.882 61.493 172.027 61.5304 172.158 61.5982L172.676 61.8977L173.765 62.5039L175.956 63.7165H176V62.8619L174.174 61.81L173.093 61.1891C172.903 61.0869 172.757 60.9992 172.523 60.8824C172.278 60.7495 172.005 60.6769 171.727 60.6705C171.246 60.7229 170.786 60.8963 170.39 61.1745L169.309 61.7881L167.118 63.0226L162.794 65.4914L158.484 67.9969L156.293 69.2459L155.219 69.8741C154.861 70.0859 154.488 70.3489 154.182 70.6045L153.941 70.7652L154.182 70.9113L155.197 71.5322L156.227 72.0946L158.294 73.2268L162.428 75.4985L170.653 80.1003L162.523 75.4109L158.455 73.0369Z" fill="#F4F4F5"/>
</g>
<g style="mix-blend-mode:color-burn">
<path d="M175.956 78.2011L175.379 78.5298L173.115 79.8227C172.75 80.0603 172.358 80.2517 171.946 80.3924C171.513 80.4729 171.066 80.384 170.697 80.1441C171.063 80.3919 171.511 80.4863 171.946 80.407C172.363 80.2734 172.76 80.0868 173.129 79.8519L175.379 78.5444L175.927 78.2449L175.956 78.2011Z" fill="#F4F4F5"/>
</g>
<g style="mix-blend-mode:color-burn">
<path d="M173.495 80.3048L175.744 78.9973L175.956 78.8731V78.8L175.708 78.9461L173.48 80.2755C173.093 80.4809 172.728 80.7257 172.392 81.006C172.241 81.1638 172.124 81.3509 172.049 81.5558C171.973 81.7606 171.941 81.9787 171.953 82.1966C171.942 81.9798 171.977 81.763 172.055 81.5604C172.133 81.3578 172.253 81.1739 172.406 81.0206C172.742 80.7433 173.107 80.5033 173.495 80.3048V80.3048Z" fill="#F4F4F5"/>
</g>
<g style="mix-blend-mode:color-burn">
<path d="M175.956 98.5293L173.911 99.7784C173.283 100.158 172.655 100.509 172.012 100.881C172.012 100.589 171.953 100.297 171.939 99.9975V98.8142V96.4329V91.6851L171.983 82.1893L171.829 91.6851L171.727 96.4622L171.668 98.8361V100.027C171.668 100.421 171.712 100.823 171.734 101.225V101.495L171.99 101.378C172.757 101.027 173.451 100.604 174.181 100.195L176 99.1575L175.956 98.5293Z" fill="#F4F4F5"/>
</g>
<g style="mix-blend-mode:color-burn">
<path d="M175.956 62.2775L174.393 61.3279L173.327 60.6705C172.995 60.5028 172.713 60.2509 172.509 59.9401C172.357 59.614 172.299 59.2525 172.341 58.8955V55.2068V50.2398V45.2728V42.782V41.5402V40.9267C172.525 41.0061 172.703 41.0988 172.874 41.2042L173.947 41.8324L175.993 43.0303V42.1392L174.349 41.1604C173.646 40.707 172.914 40.2995 172.158 39.9406L171.61 39.6995V40.2912L171.566 41.5475V42.7893V45.2728L171.683 55.2141V57.6976V58.9394C171.65 59.4099 171.749 59.8803 171.968 60.298C172.233 60.6835 172.596 60.9912 173.02 61.1891L174.094 61.81L175.956 62.8618V62.2775Z" fill="#F4F4F5"/>
</g>
<g style="mix-blend-mode:color-burn">
<path d="M172.202 23.9147L172.267 21.5042C172.267 20.708 172.18 19.8388 172.793 19.3932C173.823 18.7797 174.89 18.1661 175.956 17.5598V16.9828C174.824 17.7132 173.685 18.3779 172.545 19.1011C172.205 19.4014 171.997 19.8242 171.968 20.2771C171.968 20.708 171.968 21.0952 171.968 21.4969V23.9147V28.7356L171.924 38.3774L172.085 28.7356L172.202 23.9147Z" fill="#F4F4F5"/>
</g>
<g style="mix-blend-mode:color-burn">
<path d="M175.956 37.2452L174.145 38.3263C173.44 38.7754 172.708 39.1804 171.953 39.5388L171.902 38.3774L171.939 39.5461C172.694 39.1973 173.426 38.7996 174.13 38.3555L175.956 37.2964V37.2452Z" fill="#F4F4F5"/>
</g>
<g style="mix-blend-mode:color-burn">
<path d="M175.956 1.49006L173.341 0.0291748H173.327L175.956 1.54119V1.49006Z" fill="#F4F4F5"/>
</g>
<g style="mix-blend-mode:color-burn">
<path d="M175.956 16.1501L173.86 17.3188L172.771 17.925C172.479 18.1182 172.142 18.2338 171.793 18.261C171.448 18.2439 171.115 18.1327 170.828 17.9397L169.747 17.3334L167.556 16.1209L163.217 13.6958C160.427 12.1107 157.564 10.6206 154.795 9.02095L155.044 8.80913C155.215 8.68884 155.393 8.57907 155.577 8.48043L156.702 7.82303L158.952 6.51554L163.444 3.89325L167.965 1.31479L170.266 0.0438232H170.2L168.009 1.27097L163.458 3.79829L158.886 6.2891L156.556 7.51624L155.409 8.13712C155.208 8.24108 155.013 8.35568 154.824 8.48043L154.313 8.88947L154.079 9.07209L154.335 9.24009C155.738 10.1531 157.184 10.942 158.601 11.7966L162.896 14.2947L167.205 16.7782L169.353 18.0127L170.434 18.6336C170.842 18.9025 171.319 19.0471 171.807 19.0499C172.299 19.0218 172.775 18.8657 173.188 18.597L174.269 17.9762L175.993 16.9974L175.956 16.1501Z" fill="#F4F4F5"/>
</g>
<g style="mix-blend-mode:color-burn">
<path d="M168.966 0.0438465L167.622 0.825419L163.144 3.40388L158.645 5.96773L156.388 7.246L155.263 7.88879C154.99 8.05583 154.707 8.20468 154.415 8.33436C154.415 7.60392 154.415 6.87348 154.415 6.14304L154.474 3.65953L154.562 0.00732422H153.904V3.65953V6.14304C153.904 6.96844 153.904 7.79384 153.97 8.63384V8.90411L154.226 8.82376C154.643 8.66667 155.04 8.46071 155.409 8.21019L156.512 7.53818L158.703 6.19417L163.13 3.50614L167.571 0.854637L169.046 0.0438465H168.966Z" fill="#F4F4F5"/>
</g>
<g style="mix-blend-mode:color-burn">
<path d="M154.196 9.37158L162.794 14.2655L171.559 19.291L171.705 19.3713V19.5466C171.785 22.8702 171.807 26.1864 171.858 29.5026L171.968 39.4877V40.0648L171.427 39.8675C171.245 39.8091 171.062 39.758 170.821 39.6703C170.615 39.5738 170.415 39.464 170.222 39.3416L169.148 38.6988L167.008 37.4206L162.721 34.8567L158.433 32.3002L156.293 31.0219L155.226 30.3718L154.686 30.0431C154.462 29.9099 154.274 29.7245 154.138 29.5026C154.02 29.2774 153.96 29.0264 153.963 28.7721V24.3895V19.3932L154.014 14.4043V11.9062V10.6572V10.029C154.131 9.78063 154.196 9.53958 154.196 9.37158ZM154.196 9.37158C154.167 9.58585 154.145 9.79037 154.131 9.98515V10.6133V11.8624L154.196 14.3532L154.328 19.3494L154.423 24.3383L154.474 26.8364V28.0855V28.7064C154.465 28.8616 154.501 29.016 154.576 29.152C154.7 29.3857 155.095 29.561 155.46 29.7801L156.541 30.401L158.689 31.6647L162.998 34.192L167.3 36.7193L169.536 38.0268L170.609 38.655C170.766 38.7564 170.93 38.8467 171.099 38.9253L171.683 39.1152L171.15 39.495L171.091 29.5464C171.091 26.2302 171.04 22.9067 171.091 19.5905L171.245 19.8534L154.196 9.37158Z" fill="#F4F4F5"/>
</g>
<g style="mix-blend-mode:color-burn">
<path d="M154.766 30.5179L163.1 35.1781L167.279 37.479L169.368 38.6185L170.419 39.1955L171.435 39.831L171.698 39.999L171.427 40.1524L162.837 45.1705L158.513 47.6321L156.322 48.8666L155.248 49.4802C154.848 49.7506 154.385 49.9141 153.904 49.9549C153.415 49.9413 152.941 49.7865 152.538 49.5094L151.457 48.8885L149.302 47.654L144.993 45.1779L140.69 42.6724L138.543 41.4161C137.813 41.007 137.119 40.5761 136.417 40.1013L136.169 39.9333L136.41 39.7507C137.119 39.2388 137.869 38.7868 138.653 38.3993L140.939 37.1576L145.511 34.6668L150.055 32.1395L152.326 30.8758C152.695 30.6487 153.084 30.4556 153.488 30.2987C153.704 30.2421 153.93 30.2324 154.151 30.2702C154.371 30.308 154.581 30.3924 154.766 30.5179V30.5179ZM154.766 30.5179C154.585 30.3996 154.38 30.3203 154.167 30.2851C153.953 30.2499 153.734 30.2595 153.524 30.3134C153.121 30.4724 152.735 30.6705 152.37 30.905L150.113 32.1833L145.599 34.7617L141.107 37.384L138.857 38.7061C138.092 39.1119 137.359 39.5758 136.666 40.094V39.7434C139.493 41.4234 142.509 42.9354 145.351 44.5716L149.689 46.9967L151.881 48.2092L152.969 48.8155C153.25 49.018 153.581 49.1393 153.926 49.1661C154.274 49.1261 154.607 49.0033 154.898 48.8081L155.986 48.2019L158.177 46.9967L162.56 44.5862L171.325 39.831V40.1451L170.266 39.4877L169.236 38.8814L167.176 37.6762L163.057 35.2731L154.766 30.5179Z" fill="#F4F4F5"/>
</g>
<g style="mix-blend-mode:color-burn">
<path d="M119.004 71.4153L127.455 76.3531L131.691 78.7855L133.817 79.998L134.876 80.6116C135.071 80.7102 135.253 80.8329 135.417 80.9768C135.597 81.1406 135.72 81.3583 135.767 81.5977C135.899 84.9285 135.935 88.1351 136.016 91.4148L136.081 96.3015L136.118 98.7484V99.9683V100.582C136.102 100.807 136.072 101.032 136.03 101.254L135.965 101.802L135.461 101.539C135.088 101.349 134.73 101.166 134.343 100.954L133.276 100.319L131.151 99.0406L126.929 96.4621L122.692 93.8837L120.596 92.62L119.537 91.9699C119.13 91.778 118.777 91.4896 118.507 91.1299C118.311 90.7213 118.235 90.2653 118.288 89.8151V88.5734V86.0899V81.1375C118.288 77.8286 118.229 74.5635 118.288 71.2181C118.533 71.2564 118.773 71.3226 119.004 71.4153V71.4153ZM119.004 71.4153C118.797 71.33 118.581 71.2664 118.361 71.2254V71.2254C118.324 74.527 118.434 77.7994 118.456 81.1448L118.573 86.0972L118.631 88.5807V89.8151C118.592 90.1909 118.657 90.5702 118.821 90.9108C119.067 91.2017 119.377 91.4317 119.727 91.5828L120.801 92.1964L122.955 93.4308L127.25 95.8997L131.531 98.4051L133.678 99.6542L134.745 100.275L135.818 100.845L135.249 101.13C135.287 100.954 135.314 100.776 135.329 100.596V96.3161V91.4221C135.329 88.1789 135.395 84.8481 135.38 81.6853C135.329 81.342 135.051 81.1229 134.686 80.9183L133.649 80.2829L131.553 78.9973L127.382 76.448L119.004 71.4153Z" fill="#F4F4F5"/>
</g>
<g style="mix-blend-mode:color-burn">
<path d="M118.405 69.1509L118.448 59.5091V54.6808V52.2704C118.427 51.8616 118.427 51.452 118.448 51.0432C118.506 50.5954 118.73 50.1858 119.077 49.8965C121.845 48.1434 124.577 46.5364 127.331 44.8491L131.443 42.4094L133.51 41.175L134.547 40.5541L135.636 39.9844L136.176 39.7068V40.3204L136.242 41.584V42.8331L136.206 45.3166L136.118 50.2982L136.016 55.2725L135.935 57.7487V58.9905C135.956 59.446 135.858 59.8992 135.65 60.3053C135.395 60.6826 135.041 60.9831 134.628 61.1745L133.547 61.788L131.355 63.0225L127.031 65.4841L118.405 70.4584V69.1509ZM118.405 69.1509L118.47 70.4511L127.024 65.338L131.275 62.7449L133.401 61.452L134.46 60.802C134.818 60.6637 135.116 60.4051 135.304 60.0705C135.492 59.7359 135.558 59.3462 135.49 58.9685V50.2617V45.2801V41.5475L135.446 40.3277L136.016 40.6564L134.956 41.1896L133.919 41.7959L131.83 43.0084L127.659 45.4261C124.876 47.0112 122.02 48.589 119.31 50.1959C119.023 50.4142 118.834 50.7372 118.784 51.0944C118.739 51.4871 118.719 51.8824 118.726 52.2777L118.66 54.6881L118.551 59.5091L118.405 69.1509Z" fill="#F4F4F5"/>
</g>
<g style="mix-blend-mode:color-burn">
<path d="M134.964 80.0345L126.724 75.4327L122.59 73.1537L120.523 72.0216L119.486 71.4591L118.485 70.809L118.237 70.6483L118.492 70.4949L127.082 65.4841L131.399 63.0152L133.591 61.7881L134.664 61.1672C135.061 60.8933 135.521 60.7249 136.001 60.6778C136.487 60.7038 136.957 60.863 137.36 61.138L138.433 61.7588L140.588 62.9933L144.905 65.4695L149.171 67.9749L151.311 69.2386L152.385 69.8668C152.743 70.0859 153.115 70.3342 153.429 70.5972L153.7 70.7798L153.466 70.8967C152.735 71.3788 151.954 71.7951 151.187 72.2042L148.886 73.4605L144.262 76.0098L139.69 78.5517L137.396 79.8008C137.031 80.0416 136.629 80.2217 136.206 80.334C135.769 80.3849 135.329 80.2788 134.964 80.0345V80.0345ZM134.964 80.0345C135.33 80.2748 135.771 80.3759 136.206 80.3194C136.629 80.2065 137.029 80.0211 137.389 79.7715L139.653 78.4787L144.197 75.8783L148.718 73.2487L150.975 71.9266C151.706 71.4956 152.487 71.0501 153.166 70.5607V70.8967C152.823 70.6775 152.487 70.4438 152.129 70.2393L151.041 69.6403L148.849 68.4497L144.467 66.0465L140.128 63.6215L137.937 62.4089L136.848 61.8027C136.574 61.5971 136.248 61.4708 135.906 61.4375C135.559 61.4801 135.228 61.6081 134.942 61.81L133.853 62.4162L131.662 63.6215L127.316 66.0319L118.587 70.7871V70.473L119.551 71.1377L120.567 71.7367L122.597 72.9273L126.681 75.3085L134.964 80.0345Z" fill="#F4F4F5"/>
</g>
<g style="mix-blend-mode:color-burn">
<path d="M136.322 82.1236C136.305 81.9064 136.341 81.6882 136.428 81.4882C136.514 81.2882 136.649 81.1126 136.819 80.9768C137.17 80.7285 137.55 80.5312 137.915 80.3048L140.106 78.9754L144.54 76.3312L148.923 73.6432L151.114 72.2992C151.844 71.8682 152.575 71.3788 153.356 70.9917L153.612 70.8675L153.663 71.1597L153.758 71.7732C153.772 71.9897 153.772 72.2069 153.758 72.4233V73.6651V76.1486V81.1229V86.0972V88.5807V89.8225C153.805 90.304 153.727 90.7897 153.532 91.2322C153.391 91.4707 153.189 91.6674 152.947 91.802L152.407 92.1161L151.333 92.7369L149.186 93.986L144.964 96.4622L140.639 98.9165L138.448 100.144L137.367 100.757L136.826 101.064C136.726 101.131 136.618 101.185 136.505 101.225L136.206 101.305L135.979 101.363V101.137C135.939 100.341 135.939 99.5441 135.979 98.7485L136.038 96.3672L136.154 91.612L136.322 82.1236ZM136.322 82.1236L136.279 91.6194V96.3745V98.7558C136.26 99.5453 136.282 100.335 136.344 101.122L136.103 100.947L136.403 100.867C136.403 100.867 136.549 100.779 136.629 100.735L137.162 100.414L138.222 99.7638L140.347 98.4709L144.598 95.8851L148.871 93.3359L151.004 92.0649L152.071 91.4294L152.604 91.108C152.726 91.0431 152.829 90.9475 152.903 90.8305C153.01 90.4983 153.05 90.1482 153.02 89.8005V88.5588V86.0753L153.108 81.101L153.218 76.1267L153.283 73.6432V72.4014C153.294 72.2044 153.294 72.0068 153.283 71.8098L153.203 71.1962L153.51 71.3569C152.743 71.6929 152.005 72.175 151.253 72.584L149.01 73.8623L144.518 76.4189L140.055 79.0192L137.82 80.3121C137.455 80.5385 137.089 80.7358 136.717 80.9768C136.564 81.1223 136.448 81.3024 136.38 81.502C136.311 81.7016 136.291 81.9148 136.322 82.1236V82.1236Z" fill="#F4F4F5"/>
</g>
<g style="mix-blend-mode:color-burn">
<path d="M136.417 60.2322C136.213 53.724 136.052 47.0843 135.928 40.4738V40.0355L136.301 40.1743L136.651 40.3058L136.943 40.4446L137.513 40.7294L138.623 41.3065C139.354 41.7009 140.084 42.11 140.815 42.519L145.153 44.9952L149.441 47.5226C150.902 48.3845 152.29 49.2172 153.707 50.1887L153.868 50.2982V50.5028L153.919 60.4733C153.919 63.7968 153.977 67.1203 153.919 70.4438V70.9917L153.451 70.7141L144.854 65.4768L136.417 60.2322ZM136.417 60.2322L145.183 65.1992L153.802 70.1663L153.334 70.4365C153.261 67.113 153.239 63.7895 153.188 60.466L153.064 50.4955L153.232 50.8168C151.903 49.8892 150.456 49.0273 149.047 48.1653L144.774 45.6088L140.464 43.1399L138.273 41.9128L137.192 41.3138L136.644 41.0289L136.374 40.8901L136.154 40.7952L136.512 40.4957C136.534 47.0039 136.498 53.5633 136.417 60.2322Z" fill="#F4F4F5"/>
</g>
<g style="mix-blend-mode:color-burn">
<path d="M136.242 38.6696L136.286 28.9109V24.0315V20.3793C136.276 20.1494 136.316 19.9201 136.403 19.7071C136.49 19.4941 136.622 19.3023 136.79 19.1449C137.12 18.8733 137.472 18.629 137.842 18.4144L138.886 17.7863L140.968 16.5153L145.146 13.988C147.944 12.3299 150.727 10.6498 153.546 9.01366L154.109 8.69226V9.34966C154.189 11.037 154.109 12.6732 154.109 14.3313L154.021 19.3056L153.911 24.2726L153.846 26.7634V28.0051C153.879 28.454 153.807 28.9043 153.634 29.3199C153.396 29.7072 153.044 30.0109 152.626 30.1892L151.545 30.8027L149.353 32.0372L145.029 34.4915L140.727 36.9896L138.579 38.2386C137.849 38.6477 137.155 39.0859 136.388 39.4366C136.323 39.1843 136.274 38.9281 136.242 38.6696V38.6696ZM136.242 38.6696C136.266 38.936 136.313 39.1998 136.381 39.4585V39.4585C137.111 39.1006 137.842 38.655 138.572 38.2313L140.712 36.9604L144.978 34.4111L149.229 31.8254L151.348 30.5325L152.414 29.8824C152.758 29.7301 153.046 29.4749 153.239 29.1519C153.365 28.7912 153.41 28.4071 153.371 28.0271V26.7853V24.3018V19.3275C153.371 16.0186 153.437 12.6805 153.371 9.40079L153.963 9.72949C151.085 11.3292 148.272 12.9727 145.431 14.6015L141.187 17.0047L139.062 18.2099L138.002 18.8089C137.653 18.9896 137.319 19.1972 137.002 19.4298C136.865 19.5449 136.757 19.6896 136.685 19.8529C136.613 20.0161 136.579 20.1937 136.585 20.372V21.5919L136.52 24.0315L136.41 28.9109L136.242 38.6696Z" fill="#F4F4F5"/>
</g>
<g style="mix-blend-mode:color-burn">
<path d="M140.997 0.927619L139.536 0.0291748H138.455L138.609 0.116828L140.756 1.35858L145.066 3.83478C147.988 5.45636 150.807 7.14368 153.736 8.69952L145.263 3.49877L140.997 0.927619Z" fill="#F4F4F5"/>
</g>
<g style="mix-blend-mode:color-burn">
<path d="M153.561 0.0438232L153.656 3.69603L153.722 6.18684C153.78 7.01364 153.78 7.84354 153.722 8.67034C153.818 7.84616 153.859 7.01651 153.846 6.18684V3.69603L153.904 0.0438232H153.561Z" fill="#F4F4F5"/>
</g>
<g style="mix-blend-mode:color-burn">
<path d="M151.516 7.71342L149.419 6.56663L145.227 4.26574L137.645 0.043784L145.197 4.3753L149.324 6.78576L151.37 7.98369C151.961 8.3416 152.597 8.6703 153.145 9.07205C152.531 9.45918 151.896 9.80249 151.245 10.1604L149.054 11.3437L144.671 13.7177L140.354 16.1135L138.163 17.3187L137.082 17.9177C136.793 18.1229 136.461 18.258 136.111 18.3121C135.771 18.2782 135.448 18.1519 135.176 17.9469L134.095 17.3406L131.903 16.1354L127.608 13.725C124.825 12.1472 121.947 10.6717 119.201 9.05744L119.457 8.85291C119.625 8.73509 119.801 8.62776 119.982 8.53152L121.1 7.88143L123.328 6.61776L127.791 4.02469L132.283 1.43162L134.526 0.15335L134.737 0.0291748H134.679L134.511 0.124132L132.283 1.37319L127.769 3.8786L123.233 6.3475L120.925 7.57464L119.793 8.19552C119.592 8.29268 119.399 8.40501 119.216 8.53152L118.697 8.91865L118.47 9.09396L118.712 9.26927C119.398 9.76597 120.121 10.1531 120.837 10.5768L122.977 11.8331L127.265 14.3312L131.575 16.8001L133.766 18.0419L134.84 18.6554C135.238 18.9441 135.714 19.1047 136.206 19.1156C136.678 19.0573 137.13 18.8843 137.52 18.6116L138.601 17.9907L140.756 16.7636L145.066 14.302L149.354 11.8039L151.501 10.5548C152.231 10.1458 152.962 9.72944 153.627 9.24735L153.846 9.09396L153.634 8.93326C152.956 8.47966 152.248 8.07213 151.516 7.71342V7.71342Z" fill="#F4F4F5"/>
</g>
<g style="mix-blend-mode:color-burn">
<path d="M133.218 0.043784L132.013 0.737704L127.535 3.32347L123.036 5.88732L120.779 7.16559C120.114 7.53812 119.449 7.94717 118.77 8.26856C118.77 8.15899 118.726 8.04943 118.712 7.94717C118.697 7.8449 118.712 7.55273 118.712 7.35551V6.11376L118.777 3.63025L118.858 0.0291748H118.2V7.3482C118.2 7.56734 118.2 7.74264 118.2 7.9983C118.2 8.25395 118.295 8.42926 118.332 8.61917L118.375 8.89674L118.631 8.77257C119.435 8.39274 120.136 7.90334 120.881 7.46507L123.072 6.12106L127.499 3.43303L132.049 0.774226L133.306 0.043784H133.218Z" fill="#F4F4F5"/>
</g>
<g style="mix-blend-mode:color-burn">
<path d="M119.559 9.99972L127.835 14.8279L131.991 17.2165L134.073 18.4071L135.117 19.0061C135.315 19.1148 135.487 19.2662 135.62 19.4494C135.752 19.6325 135.843 19.8429 135.884 20.0652C136.008 23.3157 136.052 26.4639 136.132 29.6705C136.213 32.8772 136.257 36.04 136.242 39.2758V39.4877L136.074 39.5972L135.899 39.7068C135.846 39.725 135.792 39.7396 135.738 39.7506C135.692 39.7621 135.645 39.7621 135.599 39.7506C135.561 39.7573 135.521 39.7573 135.482 39.7506V39.7506H135.446L135.3 39.6849L135.008 39.5461C134.819 39.4541 134.636 39.3517 134.46 39.2393L133.401 38.6038L131.231 37.2963L126.987 34.7544C124.16 33.0598 121.356 31.3067 118.543 29.5902L118.434 29.5244V29.4003L118.492 19.4297V9.46649L119.559 9.99972ZM119.559 9.99972L118.47 9.44458L118.624 19.4078L118.865 29.3783L118.755 29.1884C121.619 30.8392 124.497 32.4535 127.338 34.1262L131.611 36.6243L133.744 37.8734L134.818 38.5016C134.993 38.5965 135.168 38.728 135.344 38.801L135.607 38.9325L135.745 38.9983H135.65C135.616 38.9945 135.582 38.9945 135.548 38.9983C135.482 38.9983 135.497 38.9983 135.548 38.9983H135.512L135.599 38.9398L135.431 39.2466C135.482 36.0911 135.431 32.8625 135.431 29.6778C135.431 26.4931 135.497 23.2572 135.475 20.1236C135.417 19.3932 134.518 19.1229 133.883 18.6628L131.837 17.4137L127.74 14.9229L119.559 9.99972Z" fill="#F4F4F5"/>
</g>
<g style="mix-blend-mode:color-burn">
<path d="M119.172 30.5251L127.455 35.1561L131.611 37.4424L133.693 38.5819L134.73 39.1444L135.745 39.7798L136.001 39.9405L135.738 40.0939L127.17 45.1194L122.853 47.5883L120.662 48.8154L119.581 49.4363C119.187 49.7042 118.737 49.8791 118.266 49.9476C117.774 49.935 117.297 49.7718 116.9 49.4801L115.819 48.8592L113.664 47.6248L109.347 45.1413L105.045 42.6359L102.905 41.3795C102.171 40.9773 101.459 40.536 100.772 40.0574L100.545 39.8894L100.764 39.7068C101.473 39.1861 102.226 38.729 103.014 38.3409L105.308 37.0918L109.895 34.601L114.46 32.0591L116.739 30.7954C117.105 30.5537 117.503 30.3666 117.923 30.2403C118.36 30.1757 118.806 30.2773 119.172 30.5251V30.5251ZM119.172 30.5251C118.802 30.2857 118.358 30.1896 117.923 30.2549C117.51 30.3899 117.117 30.5791 116.754 30.8173L114.49 32.1175L109.953 34.7033L105.447 37.3329L103.19 38.6477C102.419 39.0501 101.686 39.5194 100.998 40.0501V39.6995C101.69 40.1493 102.405 40.5637 103.138 40.9413L105.33 42.1319L109.712 44.535L114.022 46.9674L116.213 48.1799L117.302 48.7862C117.689 49.0053 117.959 49.1879 118.229 49.1587C118.581 49.0983 118.915 48.9611 119.208 48.757L120.297 48.158L122.488 46.9455L126.87 44.535L135.636 39.7725V40.0939L134.657 39.4365L133.634 38.8376L131.582 37.6397L127.484 35.2511L119.172 30.5251Z" fill="#F4F4F5"/>
</g>
<g style="mix-blend-mode:color-burn">
<path d="M100.64 82.1674C100.619 81.9505 100.647 81.7317 100.722 81.527C100.796 81.3222 100.916 81.1367 101.071 80.9841C101.425 80.7199 101.793 80.476 102.174 80.2537L104.402 78.9316L108.858 76.2728L113.292 73.5993L115.483 72.248C116.213 71.8025 116.944 71.3277 117.747 70.9332L118.025 70.8018V71.1085C118.025 71.5322 118.112 71.9559 118.12 72.3722V81.0791V86.0534V88.5369V89.7786C118.16 90.2621 118.075 90.7479 117.871 91.1884C117.737 91.422 117.546 91.618 117.316 91.7581L116.761 92.0868L115.687 92.715L113.533 93.9641L109.267 96.4622L104.943 98.9238L102.751 100.151C102.041 100.58 101.31 100.972 100.56 101.327L100.304 101.436V101.166C100.268 100.37 100.304 99.5739 100.304 98.785L100.363 96.4111L100.48 91.6705L100.64 82.1674ZM100.64 82.1674L100.596 91.6632V98.785C100.596 99.5739 100.596 100.363 100.662 101.144L100.399 100.984C101.133 100.611 101.847 100.201 102.539 99.7565L104.665 98.4636L108.916 95.8705L113.189 93.3286L115.337 92.0795L116.411 91.444L116.922 91.1373C117.043 91.0555 117.146 90.9484 117.221 90.8232C117.346 90.4977 117.394 90.1476 117.36 89.8005V88.5588V86.0753L117.448 81.101L117.557 76.1267L117.623 73.6359L117.66 72.3941C117.66 71.9778 117.616 71.5833 117.601 71.1743L117.901 71.3496C117.134 71.6856 116.389 72.1531 115.636 72.5767L113.438 73.8185L108.909 76.4042L104.417 79.0119L102.189 80.3194C101.807 80.5216 101.438 80.7485 101.086 80.9987C100.93 81.1484 100.809 81.3309 100.732 81.533C100.655 81.7351 100.623 81.9518 100.64 82.1674Z" fill="#F4F4F5"/>
</g>
<g style="mix-blend-mode:color-burn">
<path d="M117.937 70.3416C117.186 70.0011 116.454 69.6182 115.746 69.1948L113.555 67.9676L109.23 65.5133L104.921 63.0298L102.766 61.7881L101.692 61.1672C101.262 60.9776 100.889 60.6778 100.611 60.298C100.415 59.871 100.332 59.4005 100.37 58.9321V57.6903V55.2068L100.312 50.2325L100.246 45.2655V42.7747C100.217 41.9369 100.232 41.0982 100.29 40.262L100.341 39.6995L100.859 39.926C101.613 40.2887 102.345 40.6961 103.051 41.1458L105.133 42.4095L109.398 44.9587L113.671 47.5226L115.804 48.7935L116.863 49.4436C117.29 49.64 117.658 49.9447 117.93 50.3275C118.121 50.7558 118.194 51.2273 118.142 51.6934V55.4259V60.4002L118.091 65.3673V67.8581C118.083 68.688 118.032 69.517 117.937 70.3416ZM117.937 70.3416C117.981 69.5143 117.981 68.6853 117.937 67.8581L117.871 65.3746L117.74 60.4002L117.638 55.4259L117.594 52.9424V51.7007C117.636 51.3403 117.583 50.9752 117.441 50.6415C117.213 50.36 116.919 50.1392 116.586 49.9988L115.483 49.3779L113.292 48.1142L109.004 45.6015L104.716 43.0815L102.569 41.8251C101.877 41.3913 101.16 40.9986 100.421 40.6491L100.991 40.3204C100.927 41.1344 100.908 41.9513 100.933 42.7674V45.2582V50.2252V55.1995V57.6903V58.9321C100.885 59.2905 100.931 59.6552 101.064 59.9912C101.284 60.2815 101.573 60.5125 101.904 60.6632L102.97 61.306L105.096 62.5989L109.347 65.1773L113.576 67.785L115.695 69.0925C116.417 69.5529 117.166 69.97 117.937 70.3416Z" fill="#F4F4F5"/>
</g>
<g style="mix-blend-mode:color-burn">
<path d="M100.611 38.4066L100.655 28.7356V21.4823C100.655 21.0732 100.655 20.6934 100.655 20.2624C100.663 20.0349 100.721 19.8119 100.826 19.6097C100.931 19.4076 101.08 19.2313 101.261 19.0937L109.53 14.0318L113.679 11.5556L115.753 10.3138C116.44 9.89748 117.134 9.48843 117.886 9.12321L118.434 8.86755V9.45921L118.492 10.7229V11.9646L118.456 14.4481L118.405 19.4224L118.295 24.3894L118.229 26.8729V28.1147C118.255 28.5715 118.154 29.0265 117.937 29.4295C117.679 29.799 117.326 30.0918 116.915 30.2768L115.833 30.8904L113.642 32.1248L109.325 34.5791L100.684 39.5607L100.611 38.4066ZM100.611 38.4066L100.691 39.5534L109.23 34.4403L113.474 31.8546L115.6 30.5617L116.659 29.9116C117.002 29.7466 117.297 29.4948 117.513 29.1811C117.673 28.8419 117.739 28.466 117.703 28.0928V19.4151V14.4408V10.7156L117.674 9.49573L118.244 9.83174C117.519 10.1807 116.814 10.5709 116.133 11.0004L114.022 12.1838L109.858 14.6527L101.48 19.4297C100.838 19.8315 100.998 20.7299 100.947 21.5261L100.889 23.9366L100.772 28.7721L100.611 38.4066Z" fill="#F4F4F5"/>
</g>
<g style="mix-blend-mode:color-burn">
<path d="M117.674 0.043784C117.711 2.76833 117.74 5.49288 117.798 8.21743L109.639 3.49877L103.526 0.043784H103.306L109.369 3.79095L117.966 9.01361L118.434 9.29118V8.74335C118.434 5.82158 118.434 2.93633 118.434 0.0291748L117.674 0.043784Z" fill="#F4F4F5"/>
</g>
<g style="mix-blend-mode:color-burn">
<path d="M115.797 7.64768L113.701 6.5082L109.523 4.2073L102.043 0.043784L109.493 4.31687L113.613 6.72002L115.644 7.91795C116.243 8.28317 116.885 8.64839 117.441 9.01361C116.828 9.4246 116.192 9.79782 115.534 10.1312L113.343 11.3218L108.96 13.6957L104.577 16.1135L102.386 17.326L101.298 17.925C101.018 18.1332 100.688 18.2642 100.341 18.3048C100.195 18.2984 100.052 18.2584 99.9245 18.188L99.3986 17.8958L98.3102 17.2895L96.1189 16.0697L91.7362 13.6446L87.3536 11.2415L85.1623 10.0435C84.5414 9.69292 83.8913 9.37153 83.3143 8.98439C84.8044 8.15899 86.2652 7.3482 87.6239 6.54472L92.1088 3.94434L96.601 1.3878L98.8508 0.109524L98.9896 0.0291748H98.9311L98.8361 0.0803062L96.5718 1.33667L92.0357 3.84208L87.4924 6.30367C85.9804 7.13637 84.4537 7.93256 82.949 8.80909L82.6788 8.96248L82.9344 9.167C83.6098 9.65949 84.3175 10.1061 85.0527 10.5037L87.2002 11.7309L91.5025 14.2363L95.8194 16.7198L98.0107 17.9615L99.0918 18.5824C99.2817 18.6847 99.4278 18.7796 99.6542 18.8965C99.8799 19.0151 100.13 19.0801 100.385 19.0864C100.869 19.0476 101.333 18.8785 101.729 18.597L102.81 17.9761L105.001 16.7417L109.325 14.2728L113.628 11.7674L115.782 10.511C116.522 10.1196 117.228 9.66762 117.893 9.1597L118.083 8.999L117.886 8.85291C117.215 8.40913 116.517 8.00664 115.797 7.64768V7.64768Z" fill="#F4F4F5"/>
</g>
<g style="mix-blend-mode:color-burn">
<path d="M97.6967 0.0438232L96.4038 0.774265L91.9262 3.37464L87.4266 5.94579L85.1696 7.23868C84.4976 7.6112 83.8256 8.01294 83.139 8.34164C83.1041 8.24218 83.0796 8.13937 83.0659 8.03486V7.42859V6.18684L83.1755 3.69603L83.2558 0.0438232H82.613V8.07868C82.6511 8.29485 82.7073 8.50742 82.781 8.71417L82.8468 8.97713L83.0805 8.85295C83.8767 8.46582 84.5925 7.99103 85.3376 7.54546L87.5289 6.20145L91.9554 3.50612L96.4038 0.84731L97.7551 0.0438232H97.6967Z" fill="#F4F4F5"/>
</g>
<g style="mix-blend-mode:color-burn">
<path d="M83.5772 9.78064L91.9992 14.6965L96.2285 17.1289L98.3394 18.3414L99.3986 18.9404C99.5964 19.0428 99.7784 19.1732 99.9391 19.3275C100.107 19.5017 100.217 19.7238 100.253 19.963C100.37 23.2719 100.414 26.4785 100.494 29.7436L100.567 34.6157V37.0553V38.2752V38.8814C100.567 39.0933 100.516 39.327 100.487 39.5535L100.421 40.1013L99.9172 39.8456C99.5447 39.6484 99.1867 39.4731 98.7923 39.2613L97.7258 38.6258L95.6003 37.3548L91.3783 34.7983L87.1344 32.2271L85.0235 30.9269L83.9643 30.2841C83.5581 30.0881 83.2068 29.7945 82.9417 29.4295C82.7454 29.0209 82.6694 28.5649 82.7226 28.1147V26.873V24.3968V19.4371C82.7226 16.1282 82.6641 12.8193 82.7226 9.51038C83.0168 9.56782 83.3035 9.65849 83.5772 9.78064V9.78064ZM83.5772 9.78064C83.3417 9.67217 83.0973 9.5842 82.8468 9.51768V9.51768C82.8102 12.8193 82.9125 16.0917 82.9417 19.4371L83.0586 24.3968L83.117 26.873V28.1147C83.079 28.4904 83.1447 28.8694 83.3069 29.2104C83.5516 29.4996 83.8588 29.7294 84.2054 29.8824L85.2791 30.496L87.4339 31.7304L91.7362 34.1993L96.0239 36.7047L98.1641 37.9538L99.2379 38.582L100.312 39.1371L99.7419 39.4293C99.7779 39.2509 99.8023 39.0703 99.8149 38.8888V29.7436L99.866 20.0214C99.8296 19.8489 99.7512 19.688 99.6378 19.553C99.5244 19.418 99.3796 19.3129 99.216 19.2472L98.1714 18.6117L96.097 17.3334L91.9335 14.7988L83.5772 9.78064Z" fill="#F4F4F5"/>
</g>
<g style="mix-blend-mode:color-burn">
<path d="M64.929 38.2532L64.9728 28.6114V23.7905V21.3873C64.9476 20.9762 64.9476 20.564 64.9728 20.1529C65.0371 19.7064 65.2697 19.3013 65.6229 19.0207C68.384 17.2749 71.1158 15.6607 73.8623 13.966L82.1455 9.03555L82.6933 8.70685L82.7299 9.34964C82.7299 9.77329 82.8029 10.2043 82.8175 10.6206V11.8697L82.7591 14.3605L82.6787 19.3421L82.5692 24.3237L82.5034 26.8145V28.0563C82.5334 28.5094 82.4532 28.963 82.2697 29.3784C82.0087 29.7539 81.6465 30.0477 81.2252 30.2257L80.1441 30.8392L77.9528 32.0737L73.614 34.528L69.3044 37.0261L67.1495 38.2751C66.4439 38.7138 65.7121 39.109 64.9582 39.4585L64.929 38.2532ZM64.929 38.2532V39.4512C65.6849 39.0976 66.4169 38.695 67.1203 38.2459L69.2605 36.9676L73.5409 34.4184L77.7921 31.8253L79.925 30.5325L80.9914 29.8824C81.3416 29.7277 81.6387 29.4737 81.8461 29.1519C81.981 28.7984 82.031 28.4181 81.9921 28.0416V26.8072V24.3164V19.3348V14.3532V11.8624V10.6133C81.9921 10.2043 81.9483 9.80982 81.9264 9.40077L82.518 9.71486L74.2056 14.5431C71.4299 16.1354 68.5812 17.7205 65.864 19.3202C65.5733 19.5354 65.377 19.8547 65.3161 20.2113C65.2577 20.5692 65.2796 20.9856 65.2577 21.3873L65.1993 23.7978L65.0824 28.6114L64.929 38.2532Z" fill="#F4F4F5"/>
</g>
<g style="mix-blend-mode:color-burn">
<path d="M82.0433 0.043784C82.0433 2.7172 82.109 5.38331 82.1675 8.07865L82.0433 8.02021L81.4955 7.71342L80.4217 7.13638L78.2304 5.94575L73.8477 3.49877L69.4651 1.02988L67.7851 0.043784H67.5294L69.3847 1.2271L73.6432 3.85669L77.9455 6.39863L80.1368 7.64038L81.2325 8.24665L81.795 8.54613L82.0871 8.68491L82.4377 8.8237L82.803 8.96978V8.5023C82.803 5.67549 82.803 2.85598 82.803 0.0291748L82.0433 0.043784Z" fill="#F4F4F5"/>
</g>
<g style="mix-blend-mode:color-burn">
<path d="M78.1792 6.61784L74.0449 4.34617L66.3314 0.0438661L73.9938 4.42652L78.0623 6.80045C79.326 7.5309 80.6335 8.26134 81.8533 9.07213C81.5903 9.24013 81.3274 9.42274 81.0571 9.58344L79.9615 10.1751L77.7701 11.3657L73.3875 13.7397L69.0048 16.1574L66.8135 17.3699L65.7178 17.9689C65.4389 18.177 65.1076 18.3034 64.761 18.3341C64.417 18.2776 64.0915 18.1399 63.8114 17.9324L62.723 17.3188L60.5317 16.1063L56.149 13.6739L51.7664 11.2635L49.5751 10.0655C48.945 9.73831 48.333 9.37743 47.7417 8.98448L56.507 3.87138L61.0576 1.27831L63.2489 0.0146484H63.1832L60.9919 1.21988L56.412 3.76912L47.3107 8.80917L47.0331 8.96256L47.2961 9.17439C47.9683 9.67803 48.6763 10.1321 49.4144 10.533L51.5619 11.7894L55.8715 14.3021L60.1957 16.7856L62.387 18.0273L63.4681 18.6482C63.8623 18.9283 64.3233 19.0996 64.8048 19.1449C65.2905 19.1147 65.7583 18.9504 66.1561 18.6701L67.2445 18.0493L69.4358 16.8148L73.7673 14.3459L78.0769 11.8332L80.2682 10.5841L81.3493 9.95596C81.6999 9.72953 82.0432 9.48118 82.3938 9.22552L82.6276 9.06482L82.3865 8.91874C80.9549 8.07873 79.5451 7.38481 78.1792 6.61784Z" fill="#F4F4F5"/>
</g>
<g style="mix-blend-mode:color-burn">
<path d="M61.9342 0.0438268L60.6997 0.774269L56.2148 3.38195L51.708 5.88736L49.4509 7.20216C48.7862 7.57468 48.1215 7.9326 47.4422 8.29052L47.4057 7.97643C47.3871 7.77964 47.3871 7.58155 47.4057 7.38477V6.14302L47.4714 3.65221L47.5518 0H46.8944V7.34825C46.8766 7.56702 46.8766 7.78687 46.8944 8.00564L46.9966 8.61922L47.0478 8.90409L47.3034 8.77991C48.0996 8.38547 48.8154 7.91799 49.5605 7.47242L51.7518 6.1211L56.1856 3.42577L60.6997 0.774269L61.9926 0.0438268H61.9342Z" fill="#F4F4F5"/>
</g>
<g style="mix-blend-mode:color-burn">
<path d="M64.352 19.5539C64.5565 26.0549 64.7172 32.6654 64.8414 39.2759V39.7141L64.4762 39.5827L64.111 39.4512L63.8188 39.3124L63.249 39.0348L62.1607 38.4797C61.4302 38.0853 60.6998 37.6762 59.9693 37.2745L55.6305 34.7983L51.3282 32.2709C49.8673 31.4017 48.4795 30.569 47.0697 29.6048L46.909 29.4953V29.2615L46.8506 19.291C46.8506 15.9675 46.7995 12.644 46.8506 9.32045V8.80914L47.3108 9.09402L55.9154 14.324L64.352 19.5539ZM64.352 19.5539L55.5867 14.5869L46.9894 9.61263L47.4569 9.34237C47.5372 12.6659 47.5518 15.9894 47.603 19.3129L47.7271 29.2615L47.5664 28.9401C48.8958 29.8605 50.3348 30.7297 51.7446 31.5916L56.0176 34.1482L60.3272 36.6463L62.5186 37.8734L63.6069 38.4724L64.1475 38.75L64.4177 38.8887L64.6369 38.9837L64.2789 39.2832C64.257 32.7749 64.3009 26.2156 64.352 19.5539Z" fill="#F4F4F5"/>
</g>
<g style="mix-blend-mode:color-burn">
<path d="M46.3612 0.043784C46.3977 2.76833 46.4269 5.49288 46.4854 8.21013L38.3263 3.49147L32.2125 0.043784H31.9934L38.0561 3.76904L46.6534 9.00631L47.1135 9.28387V8.73604C47.1135 5.81428 47.1135 2.92903 47.1135 0.0291748L46.3612 0.043784Z" fill="#F4F4F5"/>
</g>
<g style="mix-blend-mode:color-burn">
<path d="M117.331 111.071L109.004 106.418L104.826 104.125L102.737 102.978C102.021 102.617 101.328 102.212 100.662 101.765L100.443 101.604L100.67 101.458C101.013 101.225 101.349 100.962 101.707 100.728L102.788 100.1L104.935 98.8507L109.245 96.3453L113.569 93.8764L115.76 92.6419L116.842 92.0284C117.236 91.7483 117.697 91.577 118.178 91.5317C118.447 91.5347 118.712 91.5997 118.953 91.7216C119.186 91.8385 119.332 91.9261 119.522 92.0357L120.603 92.6566L122.758 93.8983L127.075 96.3745L131.377 98.8799L133.525 100.144C134.258 100.546 134.968 100.99 135.65 101.473L135.921 101.678L135.636 101.831L126.542 106.783L122.013 109.296L119.749 110.552C119.362 110.757 119.018 110.991 118.602 111.159C118.399 111.251 118.177 111.291 117.955 111.276C117.733 111.261 117.519 111.19 117.331 111.071ZM117.331 111.071C117.513 111.188 117.721 111.257 117.936 111.274C118.152 111.29 118.368 111.253 118.565 111.166C118.96 110.991 119.296 110.757 119.698 110.545L121.947 109.267L126.44 106.688L130.917 104.088L135.387 101.473V101.831C134.703 101.375 133.994 100.957 133.262 100.582L131.071 99.3912L126.688 96.9881L122.342 94.5557L120.15 93.3432L119.135 92.7369L118.609 92.4447C118.479 92.3732 118.334 92.3331 118.186 92.3279C117.839 92.3751 117.51 92.5082 117.229 92.715L116.14 93.314L113.949 94.5265L109.566 96.9369L105.184 99.3109L102.992 100.494L101.897 101.093C101.539 101.29 101.21 101.531 100.859 101.751V101.444C101.501 101.902 102.169 102.322 102.861 102.7L104.921 103.905L109.04 106.309L117.331 111.071Z" fill="#F4F4F5"/>
</g>
<g style="mix-blend-mode:color-burn">
<path d="M152.735 131.706L144.35 126.805L140.135 124.387L138.032 123.182L136.98 122.575C136.768 122.491 136.576 122.362 136.419 122.197C136.261 122.032 136.141 121.834 136.067 121.619C136.017 121.204 135.995 120.787 136.001 120.369V119.15L135.95 116.725L135.833 111.867L135.767 107.01L135.731 104.577V103.365C135.707 102.943 135.72 102.521 135.767 102.101L135.84 101.656L136.213 101.765L136.607 101.904L136.899 102.043C137.099 102.13 137.289 102.225 137.469 102.328L138.572 102.919L140.763 104.146L145.073 106.659C146.534 107.506 147.915 108.376 149.324 109.259C150.734 110.143 152.144 111.027 153.517 111.991L153.605 112.057V112.167L153.546 122.079V131.991C153.269 131.916 152.998 131.821 152.735 131.706V131.706ZM152.735 131.706C152.987 131.821 153.249 131.914 153.517 131.984V131.984L153.364 122.071L153.13 112.159L153.218 112.335C151.844 111.429 150.405 110.589 148.981 109.749L144.671 107.258L140.318 104.804L138.127 103.613L137.031 103.036L136.483 102.759L136.213 102.627L136.03 102.547L136.476 102.211C136.43 102.594 136.416 102.98 136.432 103.365V107.017V111.874V116.732V119.157V120.369C136.406 120.759 136.406 121.149 136.432 121.538C136.49 121.874 136.783 122.079 137.162 122.269L138.2 122.904L140.267 124.175L144.416 126.702L152.735 131.706Z" fill="#F4F4F5"/>
</g>
<g style="mix-blend-mode:color-burn">
<path d="M152.582 110.815L144.445 106.257L136.279 101.758L136.038 101.619L136.264 101.458C136.591 101.193 136.935 100.949 137.294 100.728L138.368 100.1L140.522 98.8434L144.832 96.3307L149.164 93.8545L151.355 92.6127L152.436 91.9992C152.84 91.7239 153.313 91.5693 153.802 91.5536C154.285 91.5865 154.751 91.7452 155.153 92.0138L156.234 92.6346L158.426 93.8764L162.75 96.3599L167.059 98.8653L169.251 100.129L170.324 100.757L171.376 101.488L171.683 101.685L171.369 101.86C168.294 103.591 165.182 105.242 162.092 106.973L157.469 109.537L155.161 110.823C154.791 111.069 154.368 111.224 153.926 111.276C153.441 111.268 152.97 111.107 152.582 110.815V110.815ZM152.582 110.815C152.957 111.049 153.39 111.173 153.831 111.173C154.269 111.117 154.687 110.956 155.051 110.706L157.345 109.398L161.939 106.776C164.978 104.994 168.038 103.248 171.055 101.429V101.809C168.221 100.114 165.211 98.6024 162.355 96.9589L157.973 94.5192L155.781 93.3067L154.7 92.6931C154.414 92.4875 154.079 92.3592 153.729 92.3206C153.381 92.3411 153.046 92.4547 152.757 92.6493L151.669 93.2555L149.478 94.4681L145.095 96.8858L140.712 99.2671L138.521 100.465L137.425 101.057C137.075 101.264 136.739 101.494 136.417 101.743V101.444L140.427 103.818L144.46 106.162L152.582 110.815Z" fill="#F4F4F5"/>
</g>
<g style="mix-blend-mode:color-burn">
<path d="M153.89 130.851L153.933 121.202V116.374V113.993C153.905 113.582 153.905 113.169 153.933 112.758C153.998 112.314 154.227 111.909 154.576 111.626C157.337 109.858 160.076 108.251 162.83 106.564L166.979 104.088L169.046 102.853L170.083 102.24L171.179 101.67L171.727 101.385V102.013L171.763 103.27V104.512L171.72 107.002L171.639 111.984L171.53 116.958L171.464 119.449V120.698C171.488 121.153 171.392 121.606 171.186 122.013C170.931 122.39 170.577 122.691 170.164 122.882L169.083 123.496L166.891 124.73L162.574 127.141L153.955 132.13L153.89 130.851ZM153.89 130.851L153.963 132.144L162.516 127.031L166.767 124.438L168.9 123.145L169.959 122.495C170.316 122.353 170.612 122.092 170.798 121.757C170.985 121.421 171.05 121.032 170.982 120.654V119.413V116.922V111.947C170.982 108.631 171.04 105.293 170.982 101.999L171.552 102.342L170.5 102.875L169.455 103.482L167.344 104.687L163.166 107.105C160.39 108.704 157.527 110.275 154.817 111.889C154.529 112.11 154.334 112.43 154.269 112.788C154.217 113.187 154.193 113.59 154.196 113.993L154.138 116.403L154.021 121.231L153.89 130.851Z" fill="#F4F4F5"/>
</g>
<g style="mix-blend-mode:color-burn">
<path d="M175.956 139.631L175.277 140.004L173.144 141.165C172.414 141.509 171.683 142.137 171.055 141.815C168.294 140.23 165.474 138.55 162.684 136.921L158.469 134.504L156.388 133.291C155.876 132.999 155.35 132.707 154.868 132.393L162.962 127.784L167.264 125.293L169.411 124.044L170.485 123.415C170.796 123.195 171.149 123.04 171.522 122.963C171.897 122.985 172.257 123.114 172.56 123.335L173.655 123.934L175.847 125.125L176 125.212V124.891L173.86 123.635L172.786 123.006C172.424 122.728 171.986 122.565 171.53 122.539C171.085 122.606 170.661 122.771 170.288 123.021L169.192 123.613L167.001 124.796L162.618 127.177C159.697 128.799 156.775 130.369 153.926 132.027L153.4 132.327L153.904 132.692C154.583 133.156 155.288 133.581 156.015 133.963L158.133 135.146L162.377 137.52C165.241 139.069 168.031 140.632 170.945 142.181C171.161 142.259 171.392 142.289 171.62 142.267C171.849 142.246 172.07 142.174 172.267 142.056L173.327 141.443L175.379 140.216L175.942 139.887L175.956 139.631Z" fill="#F4F4F5"/>
</g>
<g style="mix-blend-mode:color-burn">
<path d="M175.956 124.029L172.246 121.75C172.246 118.485 172.246 115.176 172.209 111.948L172.158 102.634L172.655 102.89L173.728 103.518L175.92 104.775L175.993 104.818V103.935L174.167 102.846L173.1 102.211L171.975 101.619L171.384 101.298V101.977L171.515 111.948C171.559 115.278 171.581 118.602 171.661 121.925V122.108L171.815 122.188L175.985 124.577L175.956 124.029Z" fill="#F4F4F5"/>
</g>
<g style="mix-blend-mode:color-burn">
<path d="M175.956 103.767C174.773 103.036 173.56 102.401 172.421 101.656C172.523 101.568 172.611 101.488 172.698 101.422C172.786 101.356 173.049 101.225 173.217 101.122L174.313 100.531L175.956 99.6396V99.0626L174.101 100.114L173.02 100.743C172.837 100.859 172.669 100.932 172.465 101.086C172.26 101.239 172.151 101.378 171.997 101.51L171.807 101.67L172.019 101.802C173.312 102.613 174.641 103.263 175.956 103.993V103.767Z" fill="#F4F4F5"/>
</g>
</g>
<g style="mix-blend-mode:color-burn">
<g style="mix-blend-mode:color-burn">
<path d="M175.956 70.9844L173.538 69.6258L167.191 66.0831C163.122 63.7676 158.922 61.6201 154.905 59.2608C155.8 58.6281 156.729 58.0453 157.688 57.515L160.968 55.6013L167.541 51.7738L174.115 48.0047L175.942 46.9675V46.8944L174.072 47.9316L167.432 51.5838L160.763 55.2361L157.425 57.0476C156.279 57.618 155.18 58.2774 154.138 59.0197L153.795 59.29L154.16 59.5384C155.175 60.225 156.212 60.8532 157.264 61.4521L160.398 63.2928L166.672 66.945L172.976 70.5607L175.942 72.27L175.956 70.9844Z" fill="#F4F4F5"/>
</g>
<g style="mix-blend-mode:color-burn">
<path d="M128.697 105.301L141.048 112.532L147.242 116.089L150.347 117.864L151.895 118.748C152.18 118.895 152.445 119.077 152.684 119.289C152.946 119.529 153.125 119.846 153.196 120.194C153.393 125.059 153.444 129.748 153.561 134.533L153.663 141.677L153.714 145.248V147.031V147.922C153.693 148.25 153.652 148.577 153.59 148.901L153.488 149.704L152.757 149.324C152.21 149.047 151.647 148.776 151.121 148.47L149.565 147.542L146.461 145.679L140.252 141.954L134.065 138.185L130.976 136.3L129.427 135.351C128.849 135.062 128.348 134.639 127.966 134.116C127.672 133.522 127.557 132.854 127.637 132.195V130.384V126.732L127.689 119.493C127.689 114.665 127.601 109.837 127.689 105.008C128.034 105.068 128.372 105.166 128.697 105.301V105.301ZM128.697 105.301C128.392 105.169 128.073 105.074 127.747 105.016C127.689 109.837 127.849 114.672 127.886 119.5L128.054 126.739L128.134 130.391L128.178 132.203C128.118 132.75 128.217 133.303 128.463 133.795C128.818 134.223 129.268 134.56 129.778 134.781L131.348 135.68L134.474 137.44L140.749 141.048L147.009 144.701L150.135 146.527L151.698 147.44L153.269 148.265L152.436 148.689C152.488 148.428 152.527 148.165 152.553 147.9V141.655V134.511C152.553 129.77 152.648 124.928 152.619 120.282C152.546 119.778 152.136 119.464 151.611 119.164L150.091 118.237L147.045 116.367L140.946 112.649L128.697 105.301Z" fill="#F4F4F5"/>
</g>
<g style="mix-blend-mode:color-burn">
<path d="M127.762 101.984L127.827 87.9014V80.8527V77.3319C127.807 76.7327 127.819 76.1329 127.864 75.535C127.946 74.8826 128.276 74.2866 128.784 73.8696C132.824 71.3058 136.819 68.9538 140.837 66.4849L146.892 62.8619L149.916 61.065L151.428 60.1592L153.02 59.3338L153.809 58.9175L153.853 59.8159L153.948 61.6639V63.4827L153.89 67.135L153.773 74.4394L153.612 81.7438L153.517 85.396L153.473 87.2148C153.51 87.8801 153.369 88.5432 153.064 89.1359C152.689 89.6856 152.172 90.1226 151.567 90.3995L149.989 91.298L146.826 93.0949L140.508 96.6959L127.922 104L127.762 101.984ZM127.762 101.984L127.864 103.883L140.318 96.4622L146.527 92.6785L149.631 90.7867L151.187 89.8371C151.687 89.5983 152.111 89.2269 152.414 88.7633C152.647 88.2616 152.74 87.7066 152.684 87.1564V85.3449V81.6927V74.3882L152.721 67.0838V63.4316V61.6128L152.648 59.8305L153.48 60.3199L151.939 61.0942L150.42 61.978L147.374 63.7457L141.275 67.2737C137.221 69.5965 133.05 71.9047 129.084 74.2422C128.664 74.5659 128.386 75.0399 128.309 75.5643C128.249 76.1368 128.222 76.7124 128.229 77.2881L128.134 80.8088L127.973 87.8503L127.762 101.984Z" fill="#F4F4F5"/>
</g>
<g style="mix-blend-mode:color-burn">
<path d="M134.095 107.55L131.122 105.804L129.661 104.928L128.624 104.197L140.997 97.4555L147.352 93.9421L150.522 92.1744L152.115 91.2979C152.53 90.9962 153.015 90.8052 153.524 90.7428C154.024 90.7966 154.501 90.9832 154.905 91.2833L156.49 92.1671L159.66 93.9421L166 97.4847L172.362 100.991L175.547 102.729L175.985 102.97V102.13L175.912 102.087L172.779 100.246L166.504 96.5936L160.208 92.9414L157.06 91.1372L155.489 90.2315C154.903 89.8258 154.215 89.5929 153.502 89.5594C152.8 89.6309 152.128 89.8825 151.552 90.2899L149.982 91.1883L146.826 92.9925L140.522 96.5936L127.973 103.898L127.594 104.117L127.959 104.351L129.42 105.293L130.932 106.126L133.956 107.777L139.997 111.1L152.005 117.886L140.055 111.02L134.095 107.55Z" fill="#F4F4F5"/>
</g>
<g style="mix-blend-mode:color-burn">
<path d="M175.956 105.71L175.394 106.046L172.092 107.967L165.518 111.816L158.886 115.607L155.569 117.506C155.043 117.864 154.46 118.131 153.846 118.295C153.21 118.38 152.565 118.235 152.027 117.886C152.565 118.243 153.212 118.396 153.853 118.317C154.472 118.159 155.06 117.898 155.591 117.543L158.929 115.687L165.606 111.977L172.319 108.325L175.679 106.498L175.985 106.33L175.956 105.71Z" fill="#F4F4F5"/>
</g>
<g style="mix-blend-mode:color-burn">
<path d="M154.722 119.281C155.234 118.923 155.803 118.638 156.336 118.317L159.602 116.418L166.124 112.627L172.698 108.894L175.978 107.024V106.433L175.722 106.593L172.457 108.551L166.015 112.473L159.536 116.345L156.293 118.273C155.759 118.609 155.204 118.901 154.686 119.267C154.437 119.463 154.24 119.718 154.113 120.008C153.985 120.299 153.931 120.616 153.955 120.932C153.937 120.615 153.998 120.298 154.132 120.01C154.266 119.722 154.468 119.472 154.722 119.281V119.281Z" fill="#F4F4F5"/>
</g>
<g style="mix-blend-mode:color-burn">
<path d="M175.956 135.176L175.467 135.475L172.348 137.367L166.102 141.085L159.901 144.861L156.797 146.753L155.241 147.695L154.467 148.17C154.361 148.24 154.251 148.303 154.138 148.36H154.028C153.948 147.337 153.962 146.293 153.955 145.248V141.779V134.825L154.028 120.947L153.795 134.825L153.634 141.771L153.539 145.248C153.539 146.402 153.451 147.557 153.539 148.74V149.069L153.868 148.981L154.306 148.871C154.469 148.809 154.625 148.73 154.773 148.638L155.562 148.185L157.14 147.294L160.303 145.497L166.614 141.91L172.896 138.258L175.963 136.476L175.956 135.176Z" fill="#F4F4F5"/>
</g>
<g style="mix-blend-mode:color-burn">
<path d="M175.956 101.429L166.913 96.2138L154.123 88.9532L166.497 96.6229L175.956 102.379V101.429Z" fill="#F4F4F5"/>
</g>
<g style="mix-blend-mode:color-burn">
<path d="M154.488 60.8751L155.285 61.2914L156.87 62.168L160.04 63.9575L166.336 67.6097L172.582 71.3423C173.706 72.0362 174.846 72.7228 175.963 73.4241V72.0874C175.028 71.5176 174.101 70.9625 173.159 70.4L166.869 66.704L160.537 63.0518C159.477 62.4601 158.418 61.8612 157.344 61.2914L155.723 60.4368L154.927 60.057L154.496 59.8524L153.977 59.6625L153.437 59.458V60.1008C153.619 69.7938 153.853 79.4575 154.167 88.9533C154.284 79.4575 154.342 70.1006 154.342 60.7801L154.488 60.8751Z" fill="#F4F4F5"/>
</g>
<g style="mix-blend-mode:color-burn">
<path d="M154.269 36.0839L154.357 32.5193L154.408 30.737C154.398 30.4767 154.447 30.2175 154.551 29.9786C154.654 29.7396 154.81 29.527 155.007 29.3565C155.469 29.0185 155.958 28.718 156.468 28.458L158.017 27.5742L161.121 25.8211L167.344 22.3077C170.222 20.6496 173.093 18.9769 175.971 17.3261V16.0405C172.927 17.8374 169.884 19.6416 166.84 21.4531L160.77 25.1491L157.724 26.9972L156.198 27.9248C155.661 28.2212 155.149 28.5582 154.664 28.9328C154.419 29.1617 154.227 29.4409 154.101 29.7511C153.975 30.0613 153.918 30.3952 153.933 30.7297V32.5193V36.0766V43.2057L153.868 57.4639L154.101 43.213L154.269 36.0839Z" fill="#F4F4F5"/>
</g>
<g style="mix-blend-mode:color-burn">
<path d="M175.956 45.5358L175.883 45.5796L172.779 47.4641L166.614 51.2405L160.376 54.9658L157.257 56.8284C156.22 57.442 155.197 58.0848 154.109 58.6107C154.014 58.2335 153.946 57.8504 153.904 57.4639C153.941 57.8554 154.007 58.2436 154.101 58.6253C155.197 58.114 156.234 57.4785 157.279 56.8722L160.42 55.0534L166.701 51.4012L173.012 47.8147L175.985 46.1274L175.956 45.5358Z" fill="#F4F4F5"/>
</g>
<g style="mix-blend-mode:color-burn">
<path d="M175.956 11.5775L167.03 6.0919L160.821 2.33013L157.717 0.445588L156.987 0.0292358H155.321C155.445 0.109584 155.577 0.175324 155.694 0.248369L157.264 1.15412L160.449 2.96561L166.738 6.61782C169.82 8.34897 172.874 10.1239 175.956 11.8405V11.5775Z" fill="#F4F4F5"/>
</g>
<g style="mix-blend-mode:color-burn">
<path d="M172.947 10.869L175.956 12.6294V12.1254L173.115 10.5768L166.994 7.20949L154.795 0.39447L166.913 7.34828L172.947 10.869Z" fill="#F4F4F5"/>
</g>
<g style="mix-blend-mode:color-burn">
<path d="M175.956 15.7264L175.788 15.8214L172.596 17.5745L166.227 21.0368L159.879 24.5575L156.709 26.3179L155.124 27.1944C154.707 27.4959 154.223 27.6937 153.714 27.7714C153.218 27.7249 152.745 27.5401 152.348 27.2382L150.763 26.3398L147.622 24.5648L141.289 21.0295C137.221 18.7213 133.014 16.5665 129.011 14.2144L129.361 13.9223C129.593 13.7448 129.837 13.5837 130.092 13.4402L131.75 12.4614L135.008 10.5622L141.523 6.77123L148.097 3.03867L151.377 1.16874C151.925 0.869259 152.458 0.533256 153.02 0.255688C153.304 0.117872 153.618 0.0555498 153.933 0.0747431C154.248 0.0939364 154.552 0.193996 154.817 0.365254C154.553 0.190542 154.248 0.0866892 153.932 0.063665C153.616 0.0406408 153.3 0.0992189 153.013 0.233775C152.443 0.504038 151.903 0.832737 151.355 1.13222L148.031 2.96563L141.457 6.61784L134.818 10.27L131.502 12.0669L129.843 12.9654C129.551 13.1138 129.268 13.2797 128.996 13.4621L128.266 14.0318L127.937 14.2875L128.28 14.5358C129.288 15.2663 130.347 15.8287 131.392 16.4496L134.474 18.2611L140.742 21.9133L147.031 25.5217L150.172 27.3259L151.749 28.2316C152.329 28.6506 153.021 28.8848 153.736 28.9036C154.429 28.8201 155.09 28.5694 155.665 28.1732L157.235 27.2747L160.383 25.4778L166.687 21.8841L172.954 18.2319L175.934 16.4934L175.956 15.7264Z" fill="#F4F4F5"/>
</g>
<g style="mix-blend-mode:color-burn">
<path d="M151.158 0.0438247L150.968 0.153391L147.695 2.05254L141.121 5.85084L134.547 9.5907L131.26 11.4606C130.274 12.0012 129.31 12.6001 128.339 13.0749C128.303 12.9183 128.276 12.7598 128.258 12.6001C128.258 12.3737 128.258 12.0231 128.258 11.7382L128.302 9.9194L128.397 6.26719L128.543 0.0219116H127.557V6.25989V9.9121V11.7309C127.539 12.0472 127.539 12.3642 127.557 12.6805C127.608 13.0165 127.696 13.3013 127.747 13.5862L127.82 13.988L128.185 13.8127C129.361 13.2502 130.377 12.5417 131.48 11.8989L134.708 9.93401L141.18 6.00423L147.673 2.13289L150.924 0.189913L151.275 0.0438247H151.158Z" fill="#F4F4F5"/>
</g>
<g style="mix-blend-mode:color-burn">
<path d="M129.5 15.5803L141.589 22.6437L147.659 26.1279L150.698 27.8664L152.224 28.7429C152.516 28.8984 152.768 29.1177 152.963 29.3846C153.158 29.6515 153.29 29.959 153.349 30.2841C153.532 35.032 153.59 39.6411 153.714 44.3232C153.838 49.0053 153.89 53.629 153.875 58.3477V58.6399L153.634 58.7933L153.378 58.9613C153.305 58.9933 153.23 59.0178 153.152 59.0343C153.084 59.0456 153.015 59.0456 152.947 59.0343C152.888 59.0284 152.831 59.011 152.779 58.9832V58.9832H152.721L152.509 58.8809L152.085 58.6764C151.81 58.545 151.542 58.3987 151.282 58.2381L149.733 57.3032L146.636 55.4478L140.435 51.7226C136.3 49.2537 132.21 46.6971 128.098 44.1844L127.937 44.0895V43.8703L128.025 29.3053L127.9 14.7695L129.5 15.5803ZM129.5 15.5803L127.9 14.7768L128.127 29.3345L128.499 43.8703L128.346 43.5928C132.517 46.0032 136.724 48.3626 140.873 50.8022L147.118 54.4544L150.237 56.2805L151.793 57.1936C152.056 57.3397 152.312 57.5223 152.567 57.6319L152.955 57.8218L153.152 57.9167H153.196L153.057 57.8729C153.006 57.8611 152.954 57.8611 152.903 57.8729C152.808 57.8729 152.83 57.8729 152.903 57.8729H152.852L152.984 57.7926L152.735 58.2381C152.816 53.629 152.735 48.9177 152.735 44.2648C152.735 39.6119 152.823 34.8786 152.801 30.306C152.714 29.2542 151.399 28.8451 150.464 28.1878L147.476 26.3616L141.501 22.7094L129.5 15.5803Z" fill="#F4F4F5"/>
</g>
<g style="mix-blend-mode:color-burn">
<path d="M128.93 45.5723L141.048 52.3289L147.118 55.667L150.157 57.3324L151.676 58.1578L153.137 59.0854L153.517 59.3192L153.13 59.5456L140.574 66.85L134.255 70.4584L131.1 72.2553L129.522 73.1538C128.949 73.5461 128.29 73.7964 127.601 73.8842C126.883 73.8634 126.188 73.6267 125.607 73.2049L124.036 72.3576L120.888 70.5461L114.584 66.8939L108.303 63.2417L105.169 61.4009C104.132 60.7728 103.065 60.2249 102.057 59.4726L101.721 59.2169L102.043 58.9613C103.08 58.215 104.182 57.5646 105.337 57.0183L108.682 55.1922L115.388 51.54L122.057 47.8074L125.395 45.9594C125.927 45.6086 126.508 45.3379 127.119 45.1559C127.754 45.0625 128.4 45.2111 128.93 45.5723V45.5723ZM128.93 45.5723C128.396 45.2156 127.746 45.0747 127.112 45.1778C126.508 45.3681 125.935 45.6435 125.41 45.9959L122.093 47.8878L115.483 51.6715L108.909 55.5136L105.615 57.4346C104.5 58.0183 103.441 58.7029 102.452 59.4799V58.9686C103.46 59.6254 104.501 60.23 105.571 60.7801L108.756 62.5258L115.125 66.0319L121.473 69.5819L124.643 71.3569L126.228 72.2407C126.797 72.5621 127.185 72.8251 127.586 72.7885C128.112 72.7047 128.611 72.5024 129.047 72.1969L130.632 71.3204L133.744 69.5527L140.099 66.0319L152.867 59.0781V59.5383L151.406 58.5887L149.945 57.7122L146.95 55.9592L140.968 52.4676L128.93 45.5723Z" fill="#F4F4F5"/>
</g>
<g style="mix-blend-mode:color-burn">
<path d="M101.867 120.998C101.841 120.682 101.884 120.364 101.992 120.067C102.101 119.769 102.273 119.499 102.496 119.274C103.013 118.907 103.549 118.568 104.103 118.259L107.36 116.316L113.876 112.43L120.355 108.485L123.598 106.506C124.686 105.863 125.724 105.162 126.892 104.592L127.309 104.395V104.848C127.36 105.461 127.448 106.082 127.455 106.688V108.507V112.159V119.427L127.418 126.732V130.384V132.203C127.481 132.906 127.36 133.613 127.068 134.255C126.861 134.593 126.582 134.88 126.25 135.095L125.439 135.57L123.868 136.483L120.727 138.309L114.438 141.961L108.178 145.46L105.023 147.257C103.957 147.834 102.956 148.492 101.802 148.981L101.429 149.134V148.747C101.371 147.571 101.393 146.417 101.429 145.263L101.517 141.801L101.685 134.869L101.867 120.998ZM101.867 120.998L101.802 134.876V141.808V145.278C101.802 146.432 101.802 147.586 101.897 148.725L101.502 148.492C102.575 147.948 103.619 147.348 104.629 146.695L107.733 144.803L113.942 141.026L120.187 137.308L123.306 135.446L124.869 134.518L125.6 134.065C125.781 133.951 125.934 133.796 126.045 133.612C126.219 133.146 126.286 132.647 126.242 132.152V130.34L126.301 126.688L126.425 119.427L126.593 112.123L126.688 108.471L126.732 106.652C126.732 106.046 126.673 105.469 126.651 104.87L127.097 105.125C125.972 105.622 124.906 106.301 123.781 106.915L120.596 108.821L114.022 112.576L107.448 116.389L104.168 118.295C103.613 118.597 103.074 118.928 102.554 119.288C102.322 119.506 102.141 119.772 102.022 120.067C101.904 120.363 101.851 120.68 101.867 120.998Z" fill="#F4F4F5"/>
</g>
<g style="mix-blend-mode:color-burn">
<path d="M127.17 103.723C126.063 103.231 124.988 102.672 123.949 102.05L120.786 100.26L114.468 96.674L108.178 93.0218L105.03 91.2103L103.46 90.2972C102.836 90.022 102.295 89.589 101.889 89.0409C101.599 88.4161 101.475 87.7263 101.531 87.0395V85.228L101.48 81.5758L101.393 74.3152L101.305 67.0473L101.268 63.3951C101.221 62.1776 101.238 60.9585 101.32 59.7428L101.4 58.9247L102.13 59.2534C103.242 59.7795 104.318 60.3773 105.352 61.043L108.471 62.8983L114.701 66.6236L120.939 70.3489L124.058 72.2115L125.607 73.1538C126.226 73.4469 126.761 73.8916 127.163 74.4466C127.444 75.0737 127.553 75.7648 127.477 76.448V81.8971V89.1577L127.404 96.4183V100.071C127.389 101.291 127.311 102.51 127.17 103.723V103.723ZM127.17 103.723C127.237 102.506 127.237 101.287 127.17 100.071L127.075 96.4183L126.878 89.1139L126.739 81.8533L126.666 78.2011L126.629 76.3823C126.686 75.8577 126.609 75.3271 126.403 74.8411C126.068 74.4284 125.637 74.1047 125.147 73.8988L123.518 73.088L120.384 71.2473L114.124 67.5951L107.857 63.9429L104.723 62.1095C103.721 61.461 102.679 60.8755 101.604 60.3564L102.437 59.867C102.348 61.0603 102.321 62.2574 102.357 63.4535V67.1057L102.393 74.3663V81.6707V85.3229V87.1417C102.32 87.6656 102.386 88.1995 102.583 88.6903C102.904 89.1124 103.326 89.4467 103.81 89.6617L105.366 90.604L108.471 92.4886L114.679 96.2649L120.859 100.078L123.956 101.984C124.991 102.629 126.064 103.21 127.17 103.723Z" fill="#F4F4F5"/>
</g>
<g style="mix-blend-mode:color-burn">
<path d="M101.824 57.0768L101.897 42.9573V35.8939V32.3586C101.897 31.7596 101.897 31.2045 101.897 30.569C101.911 30.2381 101.998 29.9145 102.151 29.6206C102.303 29.3266 102.518 29.0695 102.78 28.8671L114.862 21.4823L120.925 17.8301L123.956 16.0186C124.963 15.3859 126.001 14.8056 127.068 14.2802L127.842 13.9222L127.9 14.7988L127.988 16.6468V18.4583L127.93 22.1105L127.805 29.3638L127.652 36.6244L127.557 40.2766L127.513 42.0881C127.548 42.755 127.402 43.4188 127.09 44.0091C126.708 44.5472 126.192 44.9754 125.592 45.2509L124.014 46.1493L120.859 47.9462L114.548 51.5327L101.984 58.8371L101.824 57.0768ZM101.824 57.0768L101.94 58.7568L114.409 51.3209L120.596 47.5226L123.693 45.6307L125.249 44.6885C125.748 44.4461 126.176 44.0787 126.491 43.622C126.725 43.126 126.821 42.5758 126.768 42.0296V40.2182V36.5659V29.3346V22.074V18.4218V16.6322L126.71 14.8499L127.542 15.3393C126.491 15.8387 125.466 16.3946 124.475 17.0047L121.421 18.7797L115.337 22.3223L103.065 29.3127C102.13 29.897 102.335 31.2045 102.284 32.3659L102.196 35.8939L102.028 42.9573L101.824 57.0768Z" fill="#F4F4F5"/>
</g>
<g style="mix-blend-mode:color-burn">
<path d="M126.754 0.043845C126.812 4.35345 126.849 8.67036 126.943 12.98L115.023 6.0919L104.336 0.043845H104.161L114.614 6.51556L127.17 14.1414L127.842 14.5504V13.7469C127.842 9.17437 127.842 4.6018 127.798 0.0292358L126.754 0.043845Z" fill="#F4F4F5"/>
</g>
<g style="mix-blend-mode:color-burn">
<path d="M102.686 0.328717L114.84 7.12913L120.947 10.4819L124 12.1546C125.045 12.6819 126.057 13.2722 127.031 13.9222L127.316 14.1341L127.031 14.3678C126.057 15.1079 125.027 15.7698 123.949 16.3473L120.808 18.1807L114.526 21.8329L108.178 25.4486L105.023 27.2528L103.438 28.1513C102.863 28.5656 102.186 28.8179 101.48 28.8817C101.086 28.874 100.699 28.7766 100.348 28.5968C100.027 28.4288 99.8076 28.29 99.53 28.1366L97.9522 27.2236L94.7967 25.4121L88.493 21.7599L82.2039 18.1077L79.0703 16.267C78.0202 15.6861 77.0077 15.0396 76.039 14.3313L75.6664 14.0318L76.0609 13.8127C78.2522 12.5709 80.4874 11.4022 82.6933 10.1605L89.2965 6.61782L95.907 2.96561L99.2086 1.1322C99.7637 0.840026 100.297 0.504023 100.874 0.241064C101.159 0.104093 101.475 0.0403831 101.791 0.0556863C102.107 0.0709894 102.415 0.164824 102.686 0.328717V0.328717ZM102.686 0.328717C102.417 0.160614 102.11 0.0631082 101.793 0.0452323C101.476 0.0273565 101.16 0.089689 100.874 0.226455C100.304 0.489414 99.771 0.832722 99.2232 1.13951L95.9435 3.00213L89.3695 6.742L82.8394 10.533C80.6481 11.8113 78.4567 13.053 76.3239 14.3459V13.8273C77.3159 14.5058 78.3531 15.116 79.4282 15.6534L82.6203 17.3991L88.9897 20.9053L95.3373 24.4552L98.5147 26.2302L100.144 27.114L100.911 27.545C101.098 27.6516 101.309 27.7117 101.524 27.7203C102.029 27.6558 102.508 27.4648 102.919 27.1652L104.526 26.2813L107.704 24.521L114.022 20.9856L120.413 17.516L123.605 15.7776C124.69 15.2472 125.729 14.6266 126.71 13.9222V14.3678C125.772 13.7027 124.797 13.093 123.788 12.5417L120.779 10.774L114.752 7.26792L102.686 0.328717Z" fill="#F4F4F5"/>
</g>
<g style="mix-blend-mode:color-burn">
<path d="M99.2671 0.0438247L98.953 0.23374L95.6807 2.13289L89.1067 5.93849L82.5327 9.68566L79.2457 11.5629C78.2596 12.118 77.2735 12.7024 76.2728 13.1918C76.2232 13.0423 76.1889 12.8881 76.1705 12.7316V11.8478L76.2144 10.029L76.302 6.37676L76.4481 0.0219116H75.4547V6.36215V10.0144V11.8259V12.7608C75.5104 13.0767 75.5935 13.387 75.7031 13.6885L75.7907 14.0683L76.1413 13.893C77.3027 13.3233 78.3327 12.6366 79.4283 11.9792L82.6642 10.0144L89.1286 6.07728L95.761 2.19132L99.0115 0.255653L99.384 0.0292155L99.2671 0.0438247Z" fill="#F4F4F5"/>
</g>
<g style="mix-blend-mode:color-burn">
<path d="M76.9375 15.259L89.2381 22.4465L95.4176 25.9965L98.5074 27.8006L100.056 28.6845C100.341 28.8318 100.604 29.0187 100.838 29.2396C101.086 29.4929 101.249 29.8171 101.305 30.1673C101.473 35.0028 101.539 39.663 101.656 44.4547L101.758 51.5838L101.802 55.1411V56.9234V57.7488C101.782 58.0743 101.745 58.3985 101.692 58.7203L101.604 59.5603L100.874 59.2097C100.326 58.9248 99.7565 58.6618 99.2305 58.3623L97.6747 57.4274L94.5922 55.5574L88.3762 51.8322L82.1893 48.0704L79.0996 46.1786L77.551 45.2363C76.9486 44.9459 76.4287 44.5089 76.039 43.9653C75.7495 43.3692 75.6379 42.7022 75.7176 42.0443V40.2328V36.5806L75.7687 29.3346C75.7687 24.5064 75.6884 19.6781 75.7687 14.8499C76.1696 14.9518 76.5606 15.0886 76.9375 15.259V15.259ZM76.9375 15.259C76.588 15.1031 76.2265 14.9761 75.8564 14.8791V14.8791C75.8053 19.7074 75.9587 24.5356 76.0025 29.3638L76.1705 36.6098L76.2508 40.262L76.2947 42.0735C76.2365 42.6229 76.3352 43.1776 76.5795 43.6732C76.9405 44.0795 77.3905 44.397 77.8943 44.6008L79.4648 45.4993L82.613 47.3254L88.8948 50.9776L95.1547 54.6298L98.281 56.4559L99.8441 57.3689L101.422 58.187L100.589 58.6107C100.589 58.3477 100.691 58.114 100.699 57.8218V51.5546V44.4255L100.779 30.2257C100.724 29.9733 100.608 29.7382 100.441 29.5409C100.274 29.3435 100.062 29.19 99.8222 29.0935L98.3029 28.1586L95.235 26.3398L89.187 22.5926L76.9375 15.259Z" fill="#F4F4F5"/>
</g>
<g style="mix-blend-mode:color-burn">
<path d="M49.6993 56.8503L49.7431 42.7747V35.7332V32.1833C49.7218 31.584 49.7364 30.984 49.7869 30.3864C49.8776 29.7339 50.218 29.142 50.7365 28.7356C54.7685 26.1864 58.7714 23.8197 62.7669 21.3581L74.8703 14.1487L75.6665 13.6739L75.7249 14.6089C75.7688 15.2297 75.8272 15.8506 75.8491 16.4715V18.2903L75.7907 21.9425L75.6665 29.2469L75.5058 36.5513L75.4108 40.2035L75.3086 41.9639C75.3535 42.6251 75.2356 43.2872 74.9653 43.8923C74.5869 44.4402 74.0597 44.8685 73.446 45.1267L71.8901 46.0617L68.7346 47.8221L62.409 51.4158L56.1126 55.068L52.9644 56.8941C51.9273 57.5349 50.8515 58.1106 49.7431 58.618V58.618L49.6993 56.8503ZM49.6993 56.8503L49.7504 58.6034C50.845 58.0829 51.9061 57.495 52.9278 56.843L56.0541 54.9804L62.3067 51.2478L68.5228 47.4641L71.6564 45.565L73.1757 44.6008C73.6792 44.376 74.1113 44.0172 74.4247 43.5636C74.6207 43.0444 74.6932 42.4867 74.6366 41.9347V40.1378V36.4856V29.1812V21.8768V18.2245V16.4057C74.6366 15.8068 74.5708 15.2224 74.5416 14.6308L75.3962 15.0909L63.2563 22.2274C59.2023 24.5502 55.0461 26.8584 51.0725 29.1958C50.6449 29.5094 50.3587 29.9794 50.2763 30.5033C50.2103 31.073 50.1786 31.6462 50.1814 32.2198L50.0937 35.7332L49.933 42.7747L49.6993 56.8503Z" fill="#F4F4F5"/>
</g>
<g style="mix-blend-mode:color-burn">
<path d="M74.695 0.043845C74.7534 4.2731 74.79 8.50967 74.8849 12.7389L74.7023 12.6513C74.4321 12.5271 74.1691 12.3956 73.8988 12.2568L72.2845 11.4168L69.0852 9.67107L62.7231 6.09921L56.3755 2.49083C54.9877 1.68003 53.5925 0.876549 52.212 0.043845H51.9929C53.3807 0.978811 54.7978 1.86995 56.2148 2.76109L62.4309 6.61782L68.7346 10.3066L71.9047 12.1254L73.5117 13.0092C73.782 13.1553 74.0522 13.2941 74.3371 13.4328L74.7607 13.6447L75.2721 13.8492L75.8126 14.0537V13.3963C75.8126 8.94063 75.8126 4.48493 75.7688 0.0292358L74.695 0.043845Z" fill="#F4F4F5"/>
</g>
<g style="mix-blend-mode:color-burn">
<path d="M50.9922 0.598989L63.0225 7.34827L69.056 10.6645C71.0574 11.7967 73.11 12.8047 75.0675 14.0391L75.4181 14.2583L75.0748 14.492C74.5635 14.8353 74.0668 15.2224 73.5482 15.5292L71.9778 16.4423L68.8296 18.2757L62.5332 21.9279L56.2075 25.5436L53.0374 27.3478L51.4597 28.2462C50.8798 28.6624 50.1985 28.9147 49.4875 28.9767C48.7828 28.9061 48.1085 28.6545 47.5299 28.2462L45.9521 27.3405L42.7893 25.5217L36.4783 21.8695L30.1819 18.2172L27.041 16.3765C25.9623 15.7921 24.9272 15.1306 23.9439 14.397L23.5568 14.0903L23.9731 13.8638L37.4059 6.55939L44.0895 2.84875L47.4276 0.986123C47.9623 0.632502 48.5523 0.370801 49.1734 0.211854C49.8063 0.12361 50.4501 0.260642 50.9922 0.598989V0.598989ZM50.9922 0.598989C50.455 0.247326 49.8106 0.0972378 49.1734 0.175332C48.5587 0.343716 47.9762 0.612752 47.4495 0.971514L44.1333 2.86336L37.4936 6.66166L24.2872 14.3751V13.8419C25.2699 14.5358 26.3027 15.1559 27.377 15.6972L30.569 17.443L36.9531 20.9564L43.3079 24.5137L46.4926 26.2886L48.0777 27.1798C48.4894 27.4846 48.9675 27.6874 49.4729 27.7714C49.9788 27.7188 50.4622 27.535 50.8753 27.2382L52.4969 26.3398L55.6816 24.5794L62.0511 21.0514L68.457 17.5745L71.6564 15.8506L73.256 14.9814C73.782 14.6819 74.2713 14.3386 74.7753 14.0172V14.4701C72.8981 13.1918 70.8529 12.1034 68.888 10.9201L62.9422 7.45784L50.9922 0.598989Z" fill="#F4F4F5"/>
</g>
<g style="mix-blend-mode:color-burn">
<path d="M47.0332 0.0438465L46.8067 0.175326L43.527 2.08178L36.9531 5.88738L30.3791 9.64185L27.0994 11.4972C26.1279 12.045 25.1637 12.6221 24.1776 13.1041L24.1119 12.6294C24.0897 12.3425 24.0897 12.0543 24.1119 11.7674L24.1776 9.94864L24.2726 6.29643L24.4187 0.00732422H23.4253V6.28182V9.93403L23.4472 11.7309C23.4225 12.047 23.4225 12.3645 23.4472 12.6805L23.5933 13.5789L23.6663 14.0026L24.0462 13.8127C25.2003 13.2429 26.2375 12.5636 27.3332 11.9062L30.5763 9.93403L37.048 5.99695L43.5563 2.111L46.8213 0.197239L47.1062 0.0292373L47.0332 0.0438465Z" fill="#F4F4F5"/>
</g>
<g style="mix-blend-mode:color-burn">
<path d="M48.9031 29.5391C49.2025 39.0348 49.4363 48.6986 49.6335 58.3842V59.0197L49.1003 58.8298L48.5744 58.6399L48.1434 58.4354C47.8658 58.3039 47.581 58.1724 47.318 58.0263L45.6964 57.179C44.6154 56.6166 43.5562 56.0176 42.4971 55.4259L36.1642 51.8103L29.8824 48.1142C27.7933 46.8506 25.7188 45.6307 23.659 44.2283L23.4252 44.0603V43.7608L23.3449 29.1958C23.3449 24.3383 23.2719 19.4882 23.2938 14.6308V13.8273L23.9731 14.2363L36.5221 21.884L48.9031 29.5391ZM48.9031 29.5391L36.113 22.2858L23.5056 15.0179L24.1776 14.6527C24.2945 19.5028 24.3164 24.3602 24.3894 29.2177L24.572 43.7754L24.331 43.3079C26.2813 44.6592 28.3776 45.9229 30.4375 47.1866L36.6828 50.9191L42.9792 54.5713L46.142 56.3609L47.7344 57.2301C47.9973 57.3835 48.2603 57.515 48.5232 57.6465L48.9177 57.8437L49.2391 57.9825L48.7205 58.4208C48.7278 48.852 48.7789 39.2759 48.9031 29.5391Z" fill="#F4F4F5"/>
</g>
<g style="mix-blend-mode:color-burn">
<path d="M22.578 0.043845C22.6364 4.35345 22.6729 8.66306 22.7679 12.9727L10.8471 6.0846L0.175321 0.043845H0L10.438 6.50095L23.0016 14.1414L23.6736 14.5577V13.7396C23.6736 9.16706 23.6736 4.6018 23.6298 0.0292358L22.578 0.043845Z" fill="#F4F4F5"/>
</g>
<g style="mix-blend-mode:color-burn">
<path d="M126.25 163.195L114.088 156.402L107.981 153.049L104.928 151.377C103.885 150.847 102.875 150.254 101.904 149.602L101.583 149.375L101.904 149.156C102.415 148.813 102.905 148.426 103.431 148.119L105.001 147.206L108.178 145.402L114.468 141.75L120.786 138.141L123.949 136.344L125.526 135.446C126.103 135.035 126.779 134.783 127.484 134.715C127.878 134.722 128.265 134.816 128.616 134.993C128.945 135.168 129.164 135.3 129.442 135.453L131.012 136.359L134.168 138.17L140.479 141.823L146.76 145.475L149.894 147.316C150.965 147.903 152.002 148.552 152.998 149.258L153.393 149.558L152.976 149.792L139.69 157.023L133.072 160.675L129.77 162.509C129.208 162.801 128.682 163.144 128.098 163.4C127.797 163.522 127.47 163.568 127.148 163.532C126.825 163.496 126.516 163.381 126.25 163.195ZM126.25 163.195C126.515 163.365 126.819 163.468 127.133 163.493C127.448 163.519 127.764 163.467 128.054 163.341C128.624 163.086 129.157 162.735 129.712 162.436L132.992 160.558L139.566 156.819L146.103 153.013L152.633 149.193V149.726C151.632 149.057 150.593 148.448 149.521 147.9L146.308 146.132L139.938 142.626L133.591 139.076L130.413 137.301L128.821 136.417L128.09 135.986C127.9 135.889 127.691 135.831 127.477 135.818C126.971 135.889 126.489 136.082 126.074 136.381L124.489 137.265L121.305 139.025L114.942 142.546L108.551 146.015L105.352 147.754L103.752 148.616C103.226 148.915 102.751 149.266 102.24 149.587V149.134C103.176 149.805 104.151 150.417 105.162 150.968L108.171 152.728L114.19 156.242L126.25 163.195Z" fill="#F4F4F5"/>
</g>
<g style="mix-blend-mode:color-burn">
<path d="M175.956 192.15L165.818 186.065L159.762 182.413L156.738 180.558L155.226 179.63C154.7 179.331 154.277 179.031 154.189 178.542C154.151 177.973 154.151 177.402 154.189 176.833V175.065V171.515L154.233 164.422V157.33V151.976C154.233 151.676 154.233 151.355 154.233 151.048L154.313 151.085L155.102 151.486L156.702 152.326L159.886 154.072L166.212 157.659L172.508 161.311C173.667 161.993 174.824 162.682 175.978 163.378V162.516C174.97 161.866 173.955 161.23 172.939 160.588C170.88 159.302 168.82 158.024 166.723 156.789L160.427 153.137L157.25 151.34L155.657 150.442C155.384 150.296 155.107 150.157 154.824 150.025L154.401 149.821C154.211 149.748 154.014 149.682 153.824 149.624L153.283 149.463L153.166 150.12C153.1 150.732 153.083 151.347 153.115 151.961V153.736L153.166 157.286L153.261 164.379L153.422 171.471L153.51 175.021L153.546 176.796C153.535 177.409 153.569 178.022 153.648 178.63C153.754 178.944 153.927 179.232 154.155 179.473C154.384 179.714 154.662 179.902 154.971 180.025L156.512 180.909L159.587 182.669L165.745 186.204L175.971 192.179L175.956 192.15Z" fill="#F4F4F5"/>
</g>
<g style="mix-blend-mode:color-burn">
<path d="M175.956 161.815L165.935 156.052L160.054 152.619L154.547 149.368C154.904 149.074 155.288 148.815 155.694 148.594L157.293 147.725L160.493 145.979L166.891 142.502L173.261 138.967L175.956 137.469V136.206H175.905L172.742 138.017L166.417 141.633L160.128 145.285L156.979 147.118L155.402 148.031C154.893 148.367 154.405 148.733 153.941 149.127L153.605 149.361L153.963 149.565L165.891 156.139L175.993 161.793L175.956 161.815Z" fill="#F4F4F5"/>
</g>
</g>
</svg>
