<svg xmlns="http://www.w3.org/2000/svg" xmlns:xlink="http://www.w3.org/1999/xlink" id="visual" viewBox="0 0 1920 1080" width="1920" height="1080" version="1.1"><rect x="0" y="0" width="1920" height="1080" fill="#001220"/><defs><linearGradient id="grad1_0" x1="43.8%" y1="0%" x2="100%" y2="100%"><stop offset="14.444444444444446%" stop-color="#001220" stop-opacity="1"/><stop offset="85.55555555555554%" stop-color="#001220" stop-opacity="1"/></linearGradient></defs><defs><linearGradient id="grad2_0" x1="0%" y1="0%" x2="56.3%" y2="100%"><stop offset="14.444444444444446%" stop-color="#001220" stop-opacity="1"/><stop offset="85.55555555555554%" stop-color="#001220" stop-opacity="1"/></linearGradient></defs><g transform="translate(1920, 0)"><path d="M0 702C-94.5 696.9 -189 691.7 -268.6 648.6C-348.3 605.4 -413 524.1 -444.1 444.1C-475.1 364 -472.6 285.1 -510 211.2C-547.4 137.4 -624.7 68.7 -702 0L0 0Z" fill="#8080FF"/></g><g transform="translate(0, 1080)"><path d="M0 -702C58.6 -613.7 117.2 -525.3 208.9 -504.4C300.6 -483.5 425.4 -530.1 496.4 -496.4C567.3 -462.7 584.5 -348.7 609.8 -252.6C635.1 -156.5 668.5 -78.2 702 0L0 0Z" fill="#8080FF"/></g></svg>