<svg width="41" height="34" viewBox="0 0 41 34" fill="none" xmlns="http://www.w3.org/2000/svg"><path d="M36.166 20.8917V24.2209C36.166 30.3897 32.641 33.0334 27.3535 33.0334H9.72851C4.44102 33.0334 0.916016 30.3897 0.916016 24.2209V13.6459C0.916016 7.47712 4.44102 4.83337 9.72851 4.83337H15.016C14.7614 5.57754 14.6243 6.40004 14.6243 7.28129V14.9188C14.6243 16.8184 15.251 18.4242 16.3673 19.5405C17.4835 20.6567 19.0893 21.2834 20.9889 21.2834V24.0054C20.9889 25.0042 22.1248 25.6113 22.9668 25.063L28.6264 21.2834H33.7181C34.5993 21.2834 35.4218 21.1463 36.166 20.8917Z" fill="#8080FF"></path><path opacity="0.4" d="M40.0833 7.28121V14.9188C40.0833 17.8367 38.595 20.03 36.1667 20.8916C35.4225 21.1462 34.6 21.2833 33.7187 21.2833H28.6271L22.9675 25.0629C22.1254 25.6112 20.9896 25.0041 20.9896 24.0053V21.2833C19.09 21.2833 17.4842 20.6566 16.3679 19.5404C15.2517 18.4241 14.625 16.8183 14.625 14.9188V7.28121C14.625 6.39996 14.7621 5.57746 15.0167 4.83329C15.8783 2.40496 18.0717 0.916626 20.9896 0.916626H33.7187C37.5375 0.916626 40.0833 3.46246 40.0833 7.28121Z" fill="#8080FF"></path></svg>